<?xml version="1.0" encoding="utf-8"?>
<!-- Generator: Adobe Illustrator 19.1.0, SVG Export Plug-In . SVG Version: 6.00 Build 0)  -->
<svg version="1.1" id="Layer_1" xmlns="http://www.w3.org/2000/svg" xmlns:xlink="http://www.w3.org/1999/xlink" x="0px" y="0px"
	 viewBox="9.2 8.7 18.5 18.5" style="enable-background:new 0 0 42.3 36;" xml:space="preserve">
<style type="text/css">
	.st0{fill:#546259;}
</style>
<path class="st0" d="M27.5,18c0,5-4.1,9.1-9.1,9.1S9.3,23,9.3,18s4.1-9.1,9.1-9.1S27.5,13,27.5,18z M14.4,21.2h1.7v-5.5h-1.7V21.2z
	 M15.3,12.9c-0.6,0-1,0.4-1,1c0,0.5,0.4,1,1,1c0.5,0,1-0.4,1-1C16.3,13.3,15.8,12.9,15.3,12.9 M17.2,21.2h1.7v-2.7
	c0-0.7,0.1-1.4,1-1.4c0.9,0,0.9,0.8,0.9,1.5v2.7h1.7v-3c0-1.5-0.3-2.6-2.1-2.6c-0.8,0-1.4,0.5-1.6,0.9h0v-0.8h-1.6V21.2z"/>
</svg>
